<mxfile host="app.diagrams.net" agent="Mozilla/5.0 (Macintosh; Intel Mac OS X 10_15_7) AppleWebKit/537.36 (KHTML, like Gecko) Chrome/130.0.0.0 Safari/537.36" version="24.8.8">
  <diagram name="第 1 页" id="cJT-IbPUhvd6bTN6g1gp">
    <mxGraphModel dx="1026" dy="588" grid="1" gridSize="10" guides="1" tooltips="1" connect="1" arrows="1" fold="1" page="1" pageScale="1" pageWidth="1169" pageHeight="827" math="0" shadow="0">
      <root>
        <mxCell id="0" />
        <mxCell id="1" parent="0" />
        <mxCell id="lY2qgF6DHtgKnWkCwjBA-3" value="" style="edgeStyle=orthogonalEdgeStyle;rounded=0;orthogonalLoop=1;jettySize=auto;html=1;" edge="1" parent="1" source="lY2qgF6DHtgKnWkCwjBA-1" target="lY2qgF6DHtgKnWkCwjBA-2">
          <mxGeometry relative="1" as="geometry" />
        </mxCell>
        <mxCell id="lY2qgF6DHtgKnWkCwjBA-1" value="list请求" style="rounded=1;whiteSpace=wrap;html=1;" vertex="1" parent="1">
          <mxGeometry x="460" y="280" width="120" height="60" as="geometry" />
        </mxCell>
        <mxCell id="lY2qgF6DHtgKnWkCwjBA-6" value="" style="edgeStyle=orthogonalEdgeStyle;rounded=0;orthogonalLoop=1;jettySize=auto;html=1;" edge="1" parent="1" source="lY2qgF6DHtgKnWkCwjBA-2" target="lY2qgF6DHtgKnWkCwjBA-5">
          <mxGeometry relative="1" as="geometry" />
        </mxCell>
        <mxCell id="lY2qgF6DHtgKnWkCwjBA-2" value="计算所有航班报价结果" style="whiteSpace=wrap;html=1;rounded=1;" vertex="1" parent="1">
          <mxGeometry x="460" y="420" width="120" height="60" as="geometry" />
        </mxCell>
        <mxCell id="lY2qgF6DHtgKnWkCwjBA-4" value="Redis" style="shape=datastore;whiteSpace=wrap;html=1;" vertex="1" parent="1">
          <mxGeometry x="690" y="560" width="60" height="60" as="geometry" />
        </mxCell>
        <mxCell id="lY2qgF6DHtgKnWkCwjBA-7" value="" style="edgeStyle=orthogonalEdgeStyle;rounded=0;orthogonalLoop=1;jettySize=auto;html=1;" edge="1" parent="1" source="lY2qgF6DHtgKnWkCwjBA-5" target="lY2qgF6DHtgKnWkCwjBA-4">
          <mxGeometry relative="1" as="geometry" />
        </mxCell>
        <mxCell id="lY2qgF6DHtgKnWkCwjBA-5" value="缓存list报价结果，并将key标识透传主站" style="whiteSpace=wrap;html=1;rounded=1;" vertex="1" parent="1">
          <mxGeometry x="460" y="560" width="120" height="60" as="geometry" />
        </mxCell>
        <mxCell id="lY2qgF6DHtgKnWkCwjBA-10" value="" style="edgeStyle=orthogonalEdgeStyle;rounded=0;orthogonalLoop=1;jettySize=auto;html=1;" edge="1" parent="1" source="lY2qgF6DHtgKnWkCwjBA-8" target="lY2qgF6DHtgKnWkCwjBA-9">
          <mxGeometry relative="1" as="geometry" />
        </mxCell>
        <mxCell id="lY2qgF6DHtgKnWkCwjBA-8" value="OTA请求" style="rounded=1;whiteSpace=wrap;html=1;" vertex="1" parent="1">
          <mxGeometry x="860" y="280" width="120" height="60" as="geometry" />
        </mxCell>
        <mxCell id="lY2qgF6DHtgKnWkCwjBA-13" value="" style="edgeStyle=orthogonalEdgeStyle;rounded=0;orthogonalLoop=1;jettySize=auto;html=1;" edge="1" parent="1" source="lY2qgF6DHtgKnWkCwjBA-9" target="lY2qgF6DHtgKnWkCwjBA-12">
          <mxGeometry relative="1" as="geometry" />
        </mxCell>
        <mxCell id="lY2qgF6DHtgKnWkCwjBA-9" value="有透传key时加载list价格缓存" style="rounded=1;whiteSpace=wrap;html=1;" vertex="1" parent="1">
          <mxGeometry x="860" y="420" width="120" height="60" as="geometry" />
        </mxCell>
        <mxCell id="lY2qgF6DHtgKnWkCwjBA-11" value="" style="endArrow=classic;html=1;rounded=0;entryX=0;entryY=1;entryDx=0;entryDy=0;" edge="1" parent="1" target="lY2qgF6DHtgKnWkCwjBA-9">
          <mxGeometry width="50" height="50" relative="1" as="geometry">
            <mxPoint x="730" y="560" as="sourcePoint" />
            <mxPoint x="780" y="510" as="targetPoint" />
          </mxGeometry>
        </mxCell>
        <mxCell id="lY2qgF6DHtgKnWkCwjBA-12" value="价差在一定范围内修正到一致" style="rounded=1;whiteSpace=wrap;html=1;" vertex="1" parent="1">
          <mxGeometry x="860" y="560" width="120" height="60" as="geometry" />
        </mxCell>
      </root>
    </mxGraphModel>
  </diagram>
</mxfile>
